<svg width="233" height="203" viewBox="0 0 233 203" fill="none" xmlns="http://www.w3.org/2000/svg">
<path d="M64.1459 95.7364C63.2296 95.8005 62.3683 95.5538 61.562 94.9964C60.8267 94.3572 60.4244 93.5412 60.355 92.5486C60.2802 91.4795 60.5624 90.5774 61.2016 89.8422C61.8408 89.1069 62.6567 88.7045 63.6494 88.6351C64.7184 88.5604 65.6205 88.8426 66.3558 89.4817C67.0911 90.1209 67.4961 90.975 67.5709 92.044C67.6403 93.0366 67.3172 93.9033 66.6017 94.6439C65.9572 95.3029 65.1386 95.667 64.1459 95.7364ZM49.5971 131.283C48.6044 131.353 47.784 131.141 47.1357 130.65C46.4822 130.081 46.11 129.148 46.0192 127.85C45.9071 126.247 46.1527 124.273 46.7561 121.929C47.3542 119.508 48.1786 117.033 49.2295 114.505C50.2751 111.899 51.4129 109.518 52.6432 107.36C53.9445 105.12 55.2015 103.344 56.4142 102.032C56.9113 101.46 57.5417 101.147 58.3053 101.094C58.9162 101.051 59.4613 101.167 59.9409 101.44C60.4204 101.713 60.6761 102.079 60.7082 102.537C60.7349 102.919 60.5707 103.314 60.2156 103.723C59.7184 104.295 59.0926 105.221 58.3381 106.501C57.6546 107.7 56.9764 108.975 56.3036 110.327C55.6255 111.602 55.1249 112.673 54.8018 113.539C54.216 115.038 53.5673 116.733 52.8555 118.625C52.1437 120.516 51.6369 122.048 51.3352 123.22C51.1595 123.999 51.0851 124.58 51.1118 124.962C51.1705 125.802 51.5053 126.201 52.1161 126.158C52.6507 126.12 53.2455 125.849 53.9007 125.342C54.5505 124.76 55.1294 124.259 55.6372 123.84C57.4394 122.179 59.0835 120.453 60.5696 118.661C62.1266 116.787 63.539 115.039 64.8067 113.415C65.0854 113.012 65.4538 112.795 65.912 112.762C66.2938 112.736 66.6534 112.941 66.9909 113.378C67.3994 113.733 67.625 114.216 67.6677 114.827C67.7158 115.514 67.5649 116.1 67.2152 116.585C66.1819 118.268 64.7038 120.175 62.781 122.304C60.9292 124.352 59.2797 126.002 57.8326 127.254C56.8934 128.087 55.6105 128.944 53.984 129.825C52.4338 130.701 50.9715 131.187 49.5971 131.283ZM65.7353 132.341C65.2008 132.379 64.6911 132.223 64.2063 131.873C63.7268 131.6 63.5012 131.117 63.5295 130.424C63.5679 126.585 64.3246 122.043 65.7995 116.799C67.3507 111.549 69.3165 106.194 71.697 100.733C70.7754 100.721 69.8511 100.67 68.9241 100.582C68.3789 100.466 67.9402 100.229 67.6081 99.8681C67.276 99.5077 67.0965 99.1365 67.0698 98.7548C67.0431 98.373 67.1337 98.0213 67.3414 97.6998C67.6201 97.2967 68.0267 97.0764 68.5612 97.039C69.0194 97.007 69.5211 97.0487 70.0662 97.164C70.6825 97.1977 71.3342 97.1905 72.0214 97.1424C72.4796 97.1104 72.8995 97.081 73.2813 97.0543C75.5961 91.7514 78.085 86.7432 80.748 82.0298C83.4052 77.2401 85.8871 73.23 88.1934 69.9994C89.5924 68.06 91.0731 66.1916 92.6356 64.3943C94.198 62.5969 95.8199 61.1023 97.5014 59.9105C99.2539 58.6369 100.97 57.9414 102.65 57.824C104.864 57.6691 106.434 58.1732 107.36 59.3362C108.356 60.4175 108.916 61.8364 109.038 63.5926C109.215 66.1124 108.706 68.7185 107.513 71.4108C106.518 73.6289 104.973 76.2307 102.88 79.2161C100.781 82.1252 98.301 85.0611 95.4389 88.0235C92.6478 90.9043 89.5654 93.4602 86.1917 95.6912C82.8948 97.9167 79.4704 99.4222 75.9189 100.208C74.5289 103.374 73.289 106.492 72.1992 109.561C71.1857 112.624 70.3142 115.524 69.5848 118.261C70.1423 117.454 70.6997 116.648 71.2572 115.842C73.0717 113.259 74.8968 110.83 76.7326 108.553C78.5631 106.2 80.9281 103.809 83.8276 101.381C86.7267 98.9532 89.3146 97.0074 91.591 95.5437C93.9384 93.9984 95.4965 93.2373 96.2654 93.2603C97.885 93.3772 98.7482 94.1992 98.8549 95.7264C98.9244 96.7191 98.699 97.8858 98.1789 99.2266C97.7298 100.486 97.2346 101.633 96.6931 102.668C96.1517 103.704 95.7797 104.42 95.5773 104.818C94.8282 106.175 93.8189 108.202 92.5497 110.9C91.2804 113.597 90.2349 116.203 89.4131 118.716C89.1664 119.577 88.9224 120.476 88.681 121.414C88.5107 122.27 88.4469 123.003 88.4896 123.614C88.559 124.607 89.0137 125.074 89.8536 125.015C90.6172 124.962 91.6977 124.503 93.0951 123.638C94.8583 122.517 96.4501 121.139 97.8705 119.505C99.3619 117.79 100.64 116.319 101.705 115.094C101.776 115.012 102.093 114.606 102.656 113.876C103.295 113.141 103.896 112.408 104.459 111.678C105.098 110.943 105.418 110.575 105.418 110.575C105.697 110.172 106.065 109.955 106.523 109.923C106.905 109.896 107.265 110.101 107.602 110.538C108.011 110.893 108.236 111.376 108.279 111.987C108.327 112.674 108.176 113.26 107.826 113.745C106.793 115.429 105.351 117.294 103.499 119.342C101.647 121.39 100 123.078 98.5585 124.406C97.0404 125.74 95.4654 126.81 93.8336 127.614C92.2018 128.419 90.6986 128.869 89.3242 128.966C87.8733 129.067 86.6222 128.733 85.5712 127.962C84.5962 127.186 84.0446 125.882 83.9164 124.049C83.799 122.369 84.0499 120.472 84.6694 118.357C85.5191 115.151 86.8682 111.949 88.7163 108.751C90.6407 105.547 92.1914 102.484 93.3683 99.563C88.0238 103.236 83.1502 107.605 78.7471 112.671C74.3439 117.736 70.6466 123.02 67.6552 128.524C67.6216 129.14 67.588 129.757 67.5543 130.373C67.597 130.984 67.4 131.458 66.9632 131.795C66.6028 132.127 66.1935 132.309 65.7353 132.341ZM102.816 61.8408C101.365 61.9423 99.703 62.8642 97.8298 64.6065C95.9566 66.3489 94.0417 68.5929 92.0853 71.3386C90.1998 74.0026 88.3303 76.8957 86.4769 80.0179C84.6181 83.0637 82.9449 86.0197 81.4576 88.8861C79.9646 91.6761 78.7832 93.9839 77.9133 95.8096C80.8929 94.527 84.0585 92.6175 87.4108 90.0812C90.7631 87.5448 93.8925 84.5637 96.7989 81.1377C99.7053 77.7117 102.053 73.9794 103.843 69.941C104.368 68.6765 104.716 67.6164 104.886 66.7604C105.128 65.8227 105.227 65.0485 105.184 64.4376C105.109 63.3686 104.792 62.6618 104.23 62.3174C103.745 61.9676 103.274 61.8088 102.816 61.8408ZM113.145 129.832C110.778 129.998 108.703 129.414 106.922 128.08C105.217 126.742 104.239 124.278 103.988 120.689C103.817 118.246 104.228 115.339 105.22 111.97C106.289 108.596 107.785 105.307 109.71 102.103C111.629 98.8233 113.817 96.0997 116.274 93.9328C118.726 91.6896 121.289 90.4745 123.961 90.2876C125.717 90.1648 127.061 90.7231 127.992 91.9625C128.993 93.1202 129.556 94.5771 129.678 96.3333C129.86 98.9295 129.196 101.508 127.687 104.069C126.178 106.63 124.179 108.765 121.69 110.474C119.276 112.177 116.81 113.117 114.29 113.293C112.229 113.437 110.618 112.897 109.458 111.674C108.954 113.244 108.562 114.768 108.281 116.245C108.001 117.723 107.906 119.111 107.997 120.409C108.152 122.623 108.719 124.156 109.7 125.009C110.751 125.779 112.002 126.114 113.453 126.012C115.209 125.889 117.125 125.295 119.198 124.229C121.349 123.158 123.336 121.945 125.159 120.59C126.977 119.158 128.315 117.99 129.173 117.086C130.609 115.681 131.961 114.167 133.229 112.544C134.568 110.839 135.723 109.262 136.696 107.813C137.046 107.328 137.45 107.07 137.908 107.037C138.366 107.005 138.764 107.208 139.102 107.645C139.51 108 139.736 108.483 139.779 109.094C139.816 109.628 139.662 110.176 139.318 110.737C138.203 112.35 136.799 114.213 135.105 116.326C133.482 118.358 131.622 120.291 129.525 122.126C128.373 123.204 126.877 124.306 125.038 125.432C123.198 126.558 121.233 127.54 119.143 128.377C117.13 129.208 115.13 129.693 113.145 129.832ZM113.805 109.644C115.332 109.537 116.939 108.926 118.626 107.81C120.389 106.69 121.902 105.279 123.164 103.58C124.497 101.798 125.326 99.9372 125.651 97.9962C125.717 97.8381 125.742 97.6445 125.726 97.4155C125.71 97.1864 125.696 96.9955 125.686 96.8428C125.589 95.4683 125.045 94.8157 124.052 94.8852C122.449 94.9973 120.812 95.7256 119.141 97.0702C117.465 98.3384 115.894 100.021 114.43 102.119C113.036 104.134 111.808 106.33 110.747 108.707C111.068 108.914 111.39 109.122 111.711 109.33C112.027 109.461 112.341 109.554 112.651 109.609C112.81 109.675 113.003 109.7 113.232 109.684C113.461 109.668 113.652 109.654 113.805 109.644ZM142.528 127.777C139.779 127.97 137.783 127.419 136.542 126.124C135.295 124.753 134.594 122.961 134.439 120.746C134.285 118.532 134.567 115.98 135.285 113.091C136.075 110.12 137.097 107.171 138.35 104.244C140.2 99.9713 142.219 95.3798 144.408 90.4693C146.673 85.5536 149.388 80.4912 152.553 75.2822C153.587 73.5986 154.828 71.5935 156.276 69.267C157.796 66.8588 159.509 64.4754 161.416 62.1169C163.399 59.753 165.562 57.7601 167.904 56.1384C170.241 54.4404 172.707 53.5006 175.303 53.3191C177.441 53.1696 178.962 53.5236 179.866 54.3812C180.847 55.2334 181.39 56.4232 181.497 57.9503C181.599 59.4011 181.372 61.105 180.819 63.0621C180.265 65.0191 179.487 67.0684 178.486 69.2102C177.02 72.382 174.923 75.8665 172.196 79.6636C169.54 83.379 166.502 87.1211 163.083 90.8899C159.658 94.5823 156.097 97.9773 152.4 101.075C148.698 104.096 145.104 106.458 141.616 108.159C140.778 110.443 140.126 112.637 139.659 114.742C139.269 116.841 139.125 118.616 139.226 120.066C139.402 122.586 140.483 123.777 142.468 123.638C145.065 123.456 147.444 122.369 149.607 120.376C151.764 118.307 153.584 115.801 155.066 112.859C156.619 109.834 157.679 106.883 158.245 104.004C157.984 103.562 157.837 103.112 157.805 102.654C157.741 101.737 158.029 100.911 158.668 100.176C159.383 99.4356 160.123 99.0386 160.887 98.9852C161.574 98.9371 162.168 99.2025 162.669 99.7813C163.246 100.355 163.512 101.411 163.466 102.948C163.945 103.222 164.338 103.348 164.643 103.326C164.877 103.387 165.112 103.447 165.346 103.507C165.575 103.491 165.804 103.475 166.034 103.459C167.79 103.337 169.432 102.685 170.961 101.503C172.566 100.317 173.656 99.4351 174.229 98.8578C175.016 98.0355 175.752 97.6003 176.44 97.5523C177.203 97.4989 177.614 97.8922 177.673 98.7321C177.711 99.2666 177.562 99.8909 177.229 100.605C176.966 101.237 176.441 101.964 175.655 102.787C173.011 105.58 169.513 107.129 165.16 107.434C164.55 107.477 163.974 107.478 163.434 107.439C162.966 107.319 162.497 107.198 162.028 107.077C161.167 110.13 159.81 113.218 157.957 116.34C156.179 119.456 153.986 122.104 151.376 124.281C148.76 126.382 145.811 127.548 142.528 127.777ZM154.672 80.889C153.431 82.8941 152.132 85.1718 150.776 87.722C149.496 90.267 148.257 92.8474 147.059 95.4633C145.855 98.0029 144.826 100.3 143.973 102.355C146.975 100.303 149.989 97.8673 153.015 95.0469C156.117 92.2211 159.052 89.215 161.822 86.0288C164.587 82.7662 167.081 79.4841 169.306 76.1825C171.525 72.8046 173.337 69.647 174.743 66.7096C176.352 63.3744 177.097 60.8668 176.98 59.187C176.889 57.8889 176.233 57.2825 175.011 57.3679C173.178 57.4961 171.254 58.5131 169.239 60.4188C167.295 62.2429 165.38 64.4869 163.495 67.1509C161.604 69.7386 159.866 72.3155 158.28 74.8818C156.766 77.3664 155.563 79.3688 154.672 80.889Z" fill="#494545"/>
<path d="M36.2632 115.065C38.2663 114.925 39.7767 113.187 39.6366 111.184C39.4965 109.181 37.7591 107.671 35.7559 107.811C33.7528 107.951 32.2425 109.688 32.3825 111.691C32.5226 113.695 34.26 115.205 36.2632 115.065Z" fill="#494545"/>
<path d="M56.649 72.1549L20.867 158.487C9.65028 191.943 2.27101 238.207 62.4824 155.577C137.746 52.2887 270.263 -71.692 200.187 53.6772C144.127 153.973 134.931 172.955 137.338 169.909" stroke="#494545" stroke-width="0.76545"/>
<path d="M183.966 103.969C185.969 103.829 187.48 102.092 187.34 100.089C187.2 98.0854 185.462 96.575 183.459 96.7151C181.456 96.8552 179.946 98.5926 180.086 100.596C180.226 102.599 181.963 104.109 183.966 103.969Z" fill="#494545"/>
</svg>
